<svg width="101" height="102" viewBox="0 0 101 102" fill="none" xmlns="http://www.w3.org/2000/svg">
<path d="M21.4433 74.5142L23.2118 71.2725L26.0578 72.8252L24.2893 76.0668L21.4433 74.5142Z" fill="white"/>
<path d="M37.5065 51.8571C38.4084 50.2351 40.2252 49.2673 42.0828 49.4088L42.3169 46.2017C39.1907 45.9863 36.1448 47.5971 34.6341 50.3187L24.8612 67.9184L27.7353 69.4568L37.5065 51.8571Z" fill="white"/>
<path d="M100.503 12.0388C100.503 5.78175 95.4111 0.691772 89.1556 0.691772H86.8635L54.4433 33.112L57.6853 36.354L51.0197 43.0196C48.4082 40.8085 45.1387 39.596 41.6794 39.596C36.8002 39.596 32.3084 42.0632 29.6386 46.0801H0V101.194H100.503V46.0801H68.7535L100.503 14.331V12.0388ZM97.2606 12.0388C92.7915 12.0388 89.1556 8.40292 89.1556 3.93379C93.6247 3.93379 97.2606 7.56972 97.2606 12.0388ZM95.1695 15.0799L72.9455 37.3039L63.8905 28.249L86.1146 6.0249C86.9737 10.6059 90.5886 14.2207 95.1695 15.0799ZM61.5984 30.5411L70.6534 39.596L68.0824 42.167L59.0275 33.112L61.5984 30.5411ZM62.5483 41.217L51.2596 52.5058C49.9612 52.2577 48.9367 51.2316 48.6887 49.9365L59.9774 38.6461L62.5483 41.217ZM22.4688 59.0482H19.4521V49.3221H27.7728L22.4688 59.0482ZM20.7003 62.2902L15.3964 72.0162H12.9681V62.2902H20.7003ZM9.72606 72.0162H3.24202V62.2902H9.72606V72.0162ZM13.6975 75.2583C13.2242 76.3962 12.9681 77.6201 12.9681 78.8553C12.9681 81.1993 13.8386 83.339 15.2667 84.9843H3.24202V75.2583H13.6975ZM25.9362 88.2263V97.9524H12.9681V88.2263H25.9362ZM74.5665 62.2902V72.0162H61.5984V62.2902H74.5665ZM68.0824 84.9843V75.2583H81.0505V84.9843H68.0824ZM51.8723 84.9843V75.2583H64.8404V84.9843H51.8723ZM58.3564 72.0162H54.3914C55.9281 71.1198 57.2687 69.9738 58.3564 68.6316V72.0162ZM48.5055 75.2583H48.6303V84.9843H30.6711L48.5055 75.2583ZM29.1782 88.2263H42.1463V97.9524H29.1782V88.2263ZM45.3883 88.2263H58.3564V97.9524H45.3883V88.2263ZM61.5984 88.2263H74.5665V97.9524H61.5984V88.2263ZM77.8085 88.2263H90.7766V97.9524H77.8085V88.2263ZM84.2925 84.9843V75.2583H97.2606V84.9843H84.2925ZM94.0186 72.0162V62.2902H97.2606V72.0162H94.0186ZM90.7766 72.0162H77.8085V62.2902H90.7766V72.0162ZM68.0824 59.0482V49.3221H81.0505V59.0482H68.0824ZM64.8404 59.0482H61.5757C61.472 55.7607 60.2854 52.6662 58.1748 50.1747L59.0275 49.3221H64.8404V59.0482ZM31.8058 48.6996C33.7786 45.0831 37.5621 42.838 41.6794 42.838C44.273 42.838 46.7305 43.7134 48.7211 45.3182L45.3883 48.651V49.3221C45.3883 52.898 48.2964 55.8061 51.8723 55.8061H52.5434L55.8746 52.475C57.481 54.4639 58.3564 56.9214 58.3564 59.515C58.3564 63.6324 56.1097 67.4158 52.4964 69.3886L25.2748 84.2354C24.3751 84.725 23.3604 84.9843 22.3391 84.9843C18.9593 84.9843 16.2101 82.2351 16.2101 78.8553C16.2101 77.834 16.4695 76.8193 16.959 75.9196L31.8058 48.6996ZM16.2101 49.3221V59.0482H3.24202V49.3221H16.2101ZM3.24202 88.2263H9.72606V97.9524H3.24202V88.2263ZM94.0186 97.9524V88.2263H97.2606V97.9524H94.0186ZM97.2606 59.0482H84.2925V49.3221H97.2606V59.0482ZM62.2695 46.0801L64.8404 43.5091L67.4113 46.0801H62.2695Z" fill="white"/>
</svg>
