<svg width="132" height="102" viewBox="0 0 132 102" fill="none" xmlns="http://www.w3.org/2000/svg">
<path d="M27.3697 99.3403C28.1428 98.1548 29.2627 95.1726 29.8575 92.7176C30.4523 90.2626 29.5554 86.6593 27.8662 84.7148L21.0372 76.8552C19.3481 74.9107 15.8739 73.0459 13.3182 72.7134L4.64568 71.5818C2.08974 71.2467 0 73.0834 0 75.6601V96.7442C0 99.3212 2.10835 101.434 4.68537 101.441L21.2786 101.486C23.8556 101.493 26.5965 100.528 27.3697 99.3403Z" fill="white"/>
<path d="M4.66185 68.5079L7.14748 68.7539C9.71274 69.0092 12.7489 67.3273 13.8944 65.0198L14.3817 64.0406C15.5297 61.7331 15.5319 58.4275 14.3888 56.6961C13.2454 54.9648 10.5513 53.7468 8.40084 53.9878C6.25034 54.2291 3.48126 55.3815 2.24653 56.5509C1.00983 57.7199 0 60.7842 0 63.361C0 65.9378 2.09904 68.2551 4.66185 68.5079Z" fill="white"/>
<path d="M18.629 70.279C20.3672 70.8623 23.0145 73.0574 24.5092 75.154L30.2955 83.2643C31.7924 85.3631 35.1029 86.7666 37.6515 86.3871L43.1054 85.5742C45.6542 85.1945 48.0414 82.7956 48.4137 80.247L49.8942 70.0467C50.2644 67.4957 48.7205 64.3915 46.4644 63.1477L36.8734 57.8601C34.6176 56.6163 30.8315 56.4265 28.4608 57.441L25.434 58.734C23.0657 59.746 19.971 62.3395 18.5607 64.4968L18.0383 65.2957C16.6236 67.4538 16.8908 69.6959 18.629 70.279Z" fill="white"/>
<path d="M34.1284 101.43H56.8616C59.4387 101.43 60.1062 99.8908 58.3467 98.0095L51.2767 90.4519C49.515 88.5707 46.0033 87.4205 43.4709 87.8982L39.3735 88.6689C36.8411 89.1467 33.9081 91.4613 32.8561 93.8134L31.3615 97.1543C30.3026 99.5039 31.5513 101.43 34.1284 101.43Z" fill="white"/>
<path d="M24.7716 35.6073L17.6451 35.038C15.0777 34.8319 12.2265 36.378 11.3105 38.47C10.3945 40.5644 10.8818 43.9846 12.3926 46.0744L12.7253 46.5335C14.234 48.621 16.3308 51.8467 17.3825 53.6974C18.4345 55.5502 21.2597 56.3001 23.6608 55.363L26.5727 54.2268C28.9741 53.2897 32.1741 50.9773 33.6827 49.0845C35.1913 47.1915 35.1913 43.9351 33.6827 41.8456L32.1858 39.7772C30.6775 37.6899 27.339 35.8136 24.7716 35.6073Z" fill="white"/>
<path d="M2.16225 53.4773C3.3524 52.3104 5.97155 51.0899 7.98387 50.769C9.99619 50.4458 10.5562 48.3772 9.22546 46.1703L8.23914 44.5326C6.90838 42.3258 4.51192 40.3205 2.90946 40.0792C1.30945 39.8382 0 41.7498 0 44.3268V50.9145C0 53.4913 0.972107 54.6464 2.16225 53.4773Z" fill="white"/>
<path d="M2.91191 36.2751C4.51192 36.5983 6.87114 35.5443 8.15242 33.9326C9.43394 32.3208 12.5825 31.1846 15.15 31.407L22.7801 32.0653C25.3475 32.288 28.255 30.5192 29.2414 28.1391L32.144 21.1298C33.1303 18.7498 32.0126 15.9385 29.6608 14.8819L21.2435 11.1055C18.8914 10.0513 15.1852 10.3112 13.0066 11.6866L9.7877 13.7153C7.60904 15.0904 4.51437 15.3574 2.91436 14.3104C1.30945 13.2653 0 14.5162 0 17.0932V31.004C0 33.5786 1.30945 35.9517 2.91191 36.2751Z" fill="white"/>
<path d="M44.2509 46.3273C41.6857 46.072 38.3169 47.4282 36.7615 49.3399C35.2058 51.2515 35.8033 53.7932 38.0876 54.9858L50.8222 61.6321C53.1065 62.8244 55.5568 65.2162 56.2643 66.9475C56.9719 68.6786 59.5768 69.501 62.0485 68.7771L71.5199 65.9987C73.9916 65.2723 74.7599 62.9859 73.2277 60.915L66.6611 52.0479C65.1267 49.9771 61.7743 48.0748 59.2115 47.8195L44.2509 46.3273Z" fill="white"/>
<path d="M69.5566 101.479L76.6526 101.448C79.2296 101.437 82.8397 99.9491 84.6764 98.143L90.6409 92.2722C92.4775 90.4637 92.6299 87.3668 90.9782 85.3871L79.0189 71.0571C77.3675 69.0773 73.9752 67.9903 71.4824 68.6393L56.9319 72.4275C54.437 73.0762 52.0756 75.6907 51.6843 78.2398L51.2838 80.8377C50.8903 83.3843 51.9727 87.0412 53.6898 88.9646L61.7557 98.0002C63.4679 99.9258 66.9796 101.488 69.5566 101.479Z" fill="white"/>
<path d="M102.886 90.6113L101.729 90.433C99.1821 90.0395 95.6305 91.2319 93.8385 93.0825L89.0078 98.0678C87.2157 99.9162 87.8554 101.43 90.4322 101.43H104.432C107.009 101.43 109.118 100.804 109.118 100.038C109.118 99.2721 108.757 96.9996 108.316 94.9873C107.876 92.975 105.432 91.0048 102.886 90.6113Z" fill="white"/>
<path d="M80.7571 69.3629C81.9002 71.0543 84.4912 71.1317 86.5155 69.5364L91.967 65.2374C93.9911 63.642 94.0097 61.0064 92.0091 59.3807L88.4693 56.5041C86.4687 54.8781 82.95 54.4964 80.6471 55.6535L80.2042 55.8762C77.9013 57.0335 76.8403 59.2896 77.8474 60.8893C78.8548 62.4893 79.4523 64.3588 79.1782 65.0431C78.9016 65.7295 79.6138 67.674 80.7571 69.3629Z" fill="white"/>
<path d="M100.909 87.1276L102.853 87.5046C105.383 87.9944 108.986 87.9099 110.863 87.315C112.739 86.72 114.171 84.129 114.047 81.5544L113.833 77.1175C113.709 74.5427 111.706 71.5254 109.382 70.4102L101.654 66.7041C99.33 65.5889 95.7856 65.9965 93.773 67.6083L89.3993 71.1175C87.3891 72.7293 87.1243 75.6414 88.8135 77.5905L93.2387 82.6951C94.9279 84.642 98.381 86.6379 100.909 87.1276Z" fill="white"/>
<path d="M126.502 68.1589L120.76 70.572C118.397 71.6002 116.548 74.5403 116.771 77.108L117.41 85.0497C117.633 87.6172 115.838 90.1124 113.482 90.5974C111.125 91.0801 109.89 93.4672 110.736 95.9011L111.195 97.2202C112.041 99.6543 114.841 101.62 117.417 101.589L126.111 101.489C128.69 101.456 131.19 99.3214 131.19 96.7446V70.9747C131.19 68.398 128.866 67.1304 126.502 68.1589Z" fill="white"/>
<path d="M126.266 48.7077L117.174 46.3859C114.681 45.7348 110.83 46.4327 108.738 47.9369L103.865 51.4018C101.773 52.9058 99.7257 56.1293 99.3482 58.5632C98.9711 60.9974 100.599 63.7947 102.982 64.7783L109.942 67.6505C112.324 68.6322 116.232 68.6533 118.626 67.6973L126.448 64.7293C128.84 63.7756 131.19 60.8872 131.19 58.3102V54.5761C131.19 51.9991 128.759 49.3588 126.266 48.7077Z" fill="white"/>
<path d="M104.008 46.1214C106.177 44.7323 105.906 43.0924 103.404 42.4762L92.8756 39.8853C90.3736 39.2691 86.6439 40.0376 84.5873 41.5906L74.4316 49.2653C72.3747 50.8185 71.0488 53.0464 71.4846 54.213C71.9183 55.3799 74.1881 55.4478 76.5238 54.363L81.5818 52.0133C83.9197 50.9285 86.3935 50.467 87.0778 50.9917C87.7618 51.5167 89.9711 53.0954 91.9856 54.5058C94.0001 55.9162 96.0477 55.5529 96.5399 53.7C97.0318 51.847 99.2103 49.195 101.38 47.8057L104.008 46.1214Z" fill="white"/>
<path d="M126.222 27.8109L108.569 24.018C106.051 23.47 102.895 24.8801 101.675 27.1502L97.9145 34.0517C96.6942 36.3217 97.7227 38.6645 100.229 39.2618L107.721 41.0492C110.228 41.6443 114.297 42.7431 116.764 43.4903L126.317 46.264C128.782 47.009 131.19 45.5122 131.19 42.9351V33.4919C131.19 30.9151 128.74 28.3592 126.222 27.8109Z" fill="white"/>
<path d="M91.5498 32.3486L90.5892 28.9259C89.8934 26.445 87.396 23.5566 85.0415 22.5092L78.4655 19.5834C76.1112 18.5363 72.2786 18.5782 69.9476 19.6794L67.1082 21.0195C64.7772 22.1205 63.0412 25.1215 63.2497 27.6914L63.4888 30.6504C63.6973 33.2179 65.8926 34.7314 68.3662 34.0097L70.6806 33.335C73.1547 32.6135 77.2119 32.5829 79.6978 33.2624L88.2932 35.6168C90.7837 36.303 92.248 34.8294 91.5498 32.3486Z" fill="white"/>
<path d="M71.2387 36.2024L68.301 37.2237C65.8668 38.0694 63.8756 40.2131 63.8756 41.9841C63.8756 43.7551 64.8291 46.1283 65.9957 47.2552C67.1626 48.3821 69.7464 47.9674 71.7399 46.3345L79.6723 39.8311C81.666 38.1961 81.5793 36.3663 79.4803 35.7619C77.3812 35.1575 73.6729 35.3567 71.2387 36.2024Z" fill="white"/>
<path d="M57.0069 32.1706L38.4693 36.9378C35.9743 37.5796 35.0537 39.175 36.4266 40.4847C37.7995 41.7944 41.0159 43.0992 43.5787 43.3848L55.2241 44.6874C57.7847 44.9733 60.1249 43.1131 60.425 40.555L60.999 35.6587C61.301 33.0959 59.5043 31.5287 57.0069 32.1706Z" fill="white"/>
<path d="M58.2953 17.6997C57.7049 15.1908 55.135 12.827 52.5886 12.4475L44.2252 11.1966C41.6764 10.8146 38.8277 12.4685 37.8928 14.8699L32.6381 28.3919C31.7057 30.7931 31.4083 33.335 31.9798 34.0401C32.5514 34.7452 35.0441 34.7288 37.5155 34.0048L56.051 28.584C58.5248 27.8601 60.0638 25.2152 59.4737 22.7085L58.2953 17.6997Z" fill="white"/>
<path d="M2.58388 11.6018C3.87937 12.3678 6.72342 11.8688 8.90209 10.4961L12.0178 8.53281C14.1989 7.15991 17.1765 6.35415 18.6334 6.74294C20.0904 7.13173 21.8852 5.93008 22.6184 4.06989C23.3516 2.21216 21.8452 0.691772 19.2682 0.691772H4.68538C2.10836 0.691772 0.0514545 2.80013 0.112456 5.37494L0.117111 5.52487C0.178113 8.10409 1.28839 10.8381 2.58388 11.6018Z" fill="white"/>
<path d="M27.4939 10.8685L28.6441 11.3114C31.0499 12.2368 34.0463 11.6089 35.3043 9.91992C36.5623 8.22853 39.6616 7.24932 42.1894 7.74346L44.9702 8.28708C47.5005 8.78147 49.194 7.27504 48.7374 4.93934C48.2805 2.60364 45.7973 0.694458 43.2203 0.694458H31.7998C29.2227 0.694458 26.2172 2.60143 25.1207 4.93469L25.116 4.94645C24.0173 7.27725 25.0879 9.94319 27.4939 10.8685Z" fill="white"/>
<path d="M55.2523 0.694215C52.6753 0.694215 51.1431 2.72295 51.846 5.20148L51.9469 5.55744C52.652 8.03597 54.6879 10.0647 56.4731 10.0647C58.2583 10.0647 60.1275 12.0748 60.6315 14.5298C61.1352 16.9848 63.4591 18.1096 65.7995 17.0272L70.2693 14.9586C72.6074 13.8762 76.318 14.0918 78.5155 15.4387L81.753 17.4229C83.9505 18.7701 86.2534 17.8234 86.872 15.3238L89.3647 5.24092C89.9831 2.74132 88.3806 0.693726 85.8039 0.693726H55.2523V0.694215Z" fill="white"/>
<path d="M97.9709 21.1999L96.6474 21.5911C94.1758 22.3197 92.5643 24.9342 93.0679 27.3987C93.5716 29.8633 95.1998 30.1607 96.6871 28.057L99.7632 23.7044C101.248 21.5982 100.443 20.4713 97.9709 21.1999Z" fill="white"/>
<path d="M100.733 17.1518C103.24 16.5567 105.592 16.9245 105.957 17.9718C106.323 19.0188 108.063 20.4013 109.825 21.0454C111.587 21.6897 113.166 20.113 113.334 17.5406L114.133 5.36795C114.302 2.79804 112.331 0.694336 109.755 0.694336H98.6669C96.0896 0.694336 93.4614 2.73703 92.8239 5.23443C92.8239 5.23443 89.2819 19.1428 89.2819 19.8738L100.733 17.1518Z" fill="white"/>
<path d="M125.725 0.694336H123.452C120.875 0.694336 118.594 2.79583 118.383 5.36329L117.322 18.2435C117.111 20.8109 119.018 23.2569 121.56 23.6785L126.179 24.3789C128.721 24.8005 131.193 23.0366 131.193 20.4596V5.3797C131.19 2.80293 128.302 0.694336 125.725 0.694336Z" fill="white"/>
</svg>
