<svg width="138" height="91" viewBox="0 0 138 91" fill="none" xmlns="http://www.w3.org/2000/svg">
<path d="M107.547 81.307C106.189 81.307 104.862 80.9044 103.733 80.1501C102.604 79.3958 101.724 78.3237 101.205 77.0693C100.685 75.815 100.549 74.4347 100.814 73.1031C101.079 71.7715 101.733 70.5483 102.693 69.5883C103.653 68.6282 104.876 67.9744 106.208 67.7095C107.539 67.4447 108.919 67.5806 110.174 68.1002C111.428 68.6198 112.5 69.4996 113.255 70.6285C114.009 71.7574 114.412 73.0846 114.412 74.4423C114.412 76.263 113.688 78.009 112.401 79.2964C111.113 80.5838 109.367 81.307 107.547 81.307ZM107.547 72.1541C107.094 72.1541 106.652 72.2883 106.276 72.5397C105.899 72.7912 105.606 73.1485 105.433 73.5667C105.26 73.9848 105.214 74.4449 105.303 74.8887C105.391 75.3326 105.609 75.7403 105.929 76.0604C106.249 76.3804 106.657 76.5983 107.1 76.6866C107.544 76.7749 108.004 76.7296 108.422 76.5564C108.841 76.3832 109.198 76.0899 109.449 75.7136C109.701 75.3373 109.835 74.8949 109.835 74.4423C109.835 73.8355 109.594 73.2534 109.165 72.8243C108.736 72.3952 108.154 72.1541 107.547 72.1541Z" fill="white"/>
<path d="M29.747 81.307C28.3893 81.307 27.0621 80.9044 25.9332 80.1501C24.8043 79.3958 23.9244 78.3237 23.4048 77.0693C22.8853 75.815 22.7493 74.4347 23.0142 73.1031C23.2791 71.7715 23.9329 70.5483 24.8929 69.5883C25.853 68.6282 27.0761 67.9744 28.4078 67.7095C29.7394 67.4447 31.1196 67.5806 32.374 68.1002C33.6283 68.6198 34.7005 69.4996 35.4548 70.6285C36.2091 71.7574 36.6117 73.0846 36.6117 74.4423C36.6117 76.263 35.8884 78.009 34.6011 79.2964C33.3137 80.5838 31.5676 81.307 29.747 81.307ZM29.747 72.1541C29.2944 72.1541 28.852 72.2883 28.4757 72.5397C28.0994 72.7912 27.8061 73.1485 27.6329 73.5667C27.4597 73.9848 27.4144 74.4449 27.5027 74.8887C27.591 75.3326 27.8089 75.7403 28.129 76.0604C28.449 76.3804 28.8567 76.5983 29.3006 76.6866C29.7444 76.7749 30.2045 76.7296 30.6227 76.5564C31.0408 76.3832 31.3981 76.0899 31.6496 75.7136C31.901 75.3373 32.0352 74.8949 32.0352 74.4423C32.0352 73.8355 31.7941 73.2534 31.365 72.8243C30.9359 72.3952 30.3539 72.1541 29.747 72.1541Z" fill="white"/>
<path d="M100.682 49.2719H96.1057C95.4988 49.2719 94.9168 49.0308 94.4876 48.6017C94.0585 48.1726 93.8174 47.5905 93.8174 46.9837C93.8174 46.3768 94.0585 45.7948 94.4876 45.3656C94.9168 44.9365 95.4988 44.6954 96.1057 44.6954H100.682C101.289 44.6954 101.871 44.9365 102.3 45.3656C102.729 45.7948 102.97 46.3768 102.97 46.9837C102.97 47.5905 102.729 48.1726 102.3 48.6017C101.871 49.0308 101.289 49.2719 100.682 49.2719Z" fill="white"/>
<path d="M45.3298 34.2816C45.1296 34.2817 44.9302 34.2547 44.7372 34.2015C44.4469 34.1237 44.1748 33.9895 43.9363 33.8065C43.6979 33.6235 43.4979 33.3953 43.3477 33.135C43.1974 32.8747 43.1 32.5874 43.0608 32.2894C43.0216 31.9914 43.0415 31.6887 43.1194 31.3984L43.7121 29.1903C43.8838 28.6212 44.2702 28.1412 44.7895 27.852C45.3089 27.5629 45.9203 27.4871 46.4945 27.6408C47.0687 27.7946 47.5606 28.1657 47.866 28.6757C48.1713 29.1857 48.2662 29.7945 48.1306 30.3733L47.538 32.5837C47.408 33.0703 47.1212 33.5003 46.722 33.8073C46.3228 34.1143 45.8334 34.281 45.3298 34.2816Z" fill="white"/>
<path d="M135.006 67.5776H132.717V37.8306C132.709 31.1574 130.055 24.7598 125.336 20.0411C120.618 15.3224 114.22 12.668 107.547 12.6601H84.6645C84.0576 12.6601 83.4756 12.9012 83.0465 13.3303C82.6174 13.7594 82.3763 14.3414 82.3763 14.9483V53.8482H68.1893C71.6165 51.7005 74.1085 48.34 75.1684 44.4367L78.5778 31.7096C79.4032 28.582 79.2677 25.2783 78.189 22.2287C77.1103 19.1792 75.1384 16.525 72.53 14.612L56.819 3.18682C54.8296 1.75088 52.4353 0.984062 49.9818 0.996987L13.7294 1.32878C12.2304 1.34676 10.7781 1.85316 9.59297 2.77115C8.40781 3.68913 7.55438 4.96863 7.16216 6.41552L1.21276 28.6113C0.839901 30.0031 0.914397 31.4769 1.4257 32.8239C1.937 34.1709 2.85918 35.3229 4.06161 36.1167L4.57646 36.4417V53.8482H2.28823C1.68135 53.8482 1.09933 54.0893 0.670207 54.5184C0.241081 54.9476 0 55.5296 0 56.1365V69.8658C0 70.4727 0.241081 71.0547 0.670207 71.4839C1.09933 71.913 1.68135 72.1541 2.28823 72.1541H4.57646V74.4423C4.57646 76.2629 5.2997 78.009 6.58708 79.2964C7.87446 80.5837 9.62052 81.307 11.4412 81.307H15.2968C16.591 84.0448 18.6363 86.3586 21.1945 87.979C23.7528 89.5993 26.7187 90.4596 29.747 90.4596C32.7752 90.4596 35.7412 89.5993 38.2994 87.979C40.8577 86.3586 42.903 84.0448 44.1972 81.307H93.0966C94.3908 84.0448 96.4361 86.3586 98.9944 87.979C101.553 89.5993 104.519 90.4596 107.547 90.4596C110.575 90.4596 113.541 89.5993 116.099 87.979C118.658 86.3586 120.703 84.0448 121.997 81.307H130.429C132.25 81.307 133.996 80.5837 135.283 79.2964C136.571 78.009 137.294 76.2629 137.294 74.4423V69.8658C137.294 69.259 137.053 68.6769 136.624 68.2478C136.194 67.8187 135.612 67.5776 135.006 67.5776ZM96.1057 17.2366H107.547C112.61 17.2439 117.493 19.1137 121.266 22.4896C125.039 25.8655 127.438 30.5115 128.006 35.5424H123.564V30.9659C123.564 30.3591 123.323 29.777 122.894 29.3479C122.465 28.9188 121.883 28.6777 121.276 28.6777C120.669 28.6777 120.087 28.9188 119.658 29.3479C119.229 29.777 118.988 30.3591 118.988 30.9659V35.5424H98.3939C97.787 35.5424 97.205 35.3013 96.7759 34.8722C96.3467 34.4431 96.1057 33.861 96.1057 33.2542V17.2366ZM18.3058 45.5053L30.9415 53.8482H18.3058V45.5053ZM5.64506 29.7875L11.5945 7.60311C11.7236 7.11957 12.0076 6.69169 12.4032 6.38502C12.7987 6.07836 13.2838 5.90982 13.7843 5.90524L50.0299 5.57345H50.0436L46.085 20.3463C45.9284 20.9322 46.0108 21.5563 46.3142 22.0815C46.6175 22.6066 47.117 22.9899 47.7027 23.1471C47.8958 23.2003 48.0951 23.2272 48.2954 23.2271C48.799 23.2266 49.2883 23.0599 49.6876 22.7529C50.0868 22.4459 50.3736 22.0158 50.5035 21.5293L54.3798 7.06537L69.8322 18.3097C71.695 19.6765 73.1034 21.5722 73.8742 23.7502C74.6451 25.9282 74.7429 28.2877 74.1547 30.522L70.7429 43.2492C70.1366 45.4772 68.8739 47.4714 67.1192 48.9723C65.3644 50.4733 63.1987 51.4116 60.9035 51.6653L41.9112 53.6766L45.1948 41.4231C45.2727 41.1329 45.2926 40.8301 45.2534 40.5321C45.2142 40.2342 45.1167 39.9468 44.9665 39.6866C44.8163 39.4263 44.6162 39.1981 44.3778 39.0151C44.1394 38.8321 43.8673 38.6979 43.5771 38.6201C42.9908 38.4629 42.3661 38.545 41.8405 38.8484C41.3148 39.1518 40.9312 39.6516 40.774 40.2378L37.4538 52.6355C37.424 52.6149 37.3897 52.6034 37.3576 52.5828L6.59697 32.2908C6.19545 32.0264 5.88739 31.6423 5.71652 31.193C5.54565 30.7436 5.52065 30.2519 5.64506 29.7875ZM13.7294 42.4849V44.6953H9.15292V39.4621L13.7294 42.4849ZM13.7294 49.2718V53.8482H9.15292V49.2718H13.7294ZM13.9124 76.7305H11.4412C10.8343 76.7305 10.2523 76.4894 9.82313 76.0603C9.394 75.6312 9.15292 75.0492 9.15292 74.4423V72.1541H13.9124C13.6684 73.6698 13.6684 75.2148 13.9124 76.7305ZM29.747 85.8835C27.4841 85.8835 25.2721 85.2124 23.3906 83.9553C21.5091 82.6981 20.0427 80.9112 19.1767 78.8206C18.3108 76.73 18.0842 74.4296 18.5257 72.2102C18.9671 69.9909 20.0568 67.9523 21.6569 66.3522C23.257 64.7521 25.2956 63.6625 27.5149 63.221C29.7343 62.7795 32.0347 63.0061 34.1253 63.8721C36.2159 64.738 38.0028 66.2045 39.26 68.0859C40.5171 69.9674 41.1881 72.1795 41.1881 74.4423C41.1845 77.4756 39.9779 80.3836 37.8331 82.5284C35.6883 84.6732 32.7803 85.8798 29.747 85.8835ZM29.747 58.4247C26.7196 58.4288 23.7554 59.2908 21.1978 60.9108C18.6403 62.5308 16.5943 64.8423 15.2968 67.5776H4.57646V58.4247H82.3763V67.5776H44.1972C42.8997 64.8423 40.8537 62.5308 38.2961 60.9108C35.7386 59.2908 32.7744 58.4288 29.747 58.4247ZM91.7123 76.7305H45.5815C45.8256 75.2148 45.8256 73.6698 45.5815 72.1541H91.7123C91.4682 73.6698 91.4682 75.2148 91.7123 76.7305ZM107.547 85.8835C105.284 85.8835 103.072 85.2124 101.19 83.9553C99.309 82.6981 97.8425 80.9112 96.9766 78.8206C96.1106 76.73 95.884 74.4296 96.3255 72.2102C96.767 69.9909 97.8566 67.9523 99.4567 66.3522C101.057 64.7521 103.095 63.6625 105.315 63.221C107.534 62.7795 109.835 63.0061 111.925 63.8721C114.016 64.738 115.803 66.2045 117.06 68.0859C118.317 69.9674 118.988 72.1795 118.988 74.4423C118.984 77.4756 117.778 80.3836 115.633 82.5284C113.488 84.6732 110.58 85.8798 107.547 85.8835ZM107.547 58.4247C104.519 58.4288 101.555 59.2908 98.9977 60.9108C96.4402 62.5308 94.3941 64.8423 93.0966 67.5776H86.9527V17.2366H91.5292V33.2542C91.5292 35.0748 92.2524 36.8209 93.5398 38.1082C94.8272 39.3956 96.5733 40.1189 98.3939 40.1189H128.141V44.6953H121.276C119.456 44.6953 117.71 45.4186 116.422 46.7059C115.135 47.9933 114.412 49.7394 114.412 51.56C114.412 53.3806 115.135 55.1267 116.422 56.4141C117.71 57.7015 119.456 58.4247 121.276 58.4247H128.141V67.5776H121.997C120.7 64.8423 118.653 62.5308 116.096 60.9108C113.538 59.2908 110.574 58.4288 107.547 58.4247ZM128.141 49.2718V53.8482H121.276C120.669 53.8482 120.087 53.6072 119.658 53.178C119.229 52.7489 118.988 52.1669 118.988 51.56C118.988 50.9531 119.229 50.3711 119.658 49.942C120.087 49.5129 120.669 49.2718 121.276 49.2718H128.141ZM132.717 74.4423C132.717 75.0492 132.476 75.6312 132.047 76.0603C131.618 76.4894 131.036 76.7305 130.429 76.7305H123.381C123.625 75.2148 123.625 73.6698 123.381 72.1541H132.717V74.4423Z" fill="white"/>
</svg>
