<svg width="101" height="100" viewBox="0 0 101 100" fill="none" xmlns="http://www.w3.org/2000/svg">
<path d="M1.68333 100H99.3167C99.5377 100 99.7566 99.9569 99.9609 99.8731C100.165 99.7894 100.351 99.6666 100.507 99.5119C100.663 99.3571 100.787 99.1734 100.872 98.9711C100.956 98.7689 101 98.5522 101 98.3333V70.6433C101 69.0889 100.62 67.5576 99.8913 66.1806C99.163 64.8036 98.1085 63.6218 96.8181 62.7364C95.5277 61.851 94.0398 61.2884 92.4819 61.0967C90.9239 60.905 89.3422 61.09 87.8722 61.6358L83.2523 63.3512C82.2286 63.7267 81.11 63.7658 80.0621 63.4627C79.0143 63.1596 78.0929 62.5303 77.4345 61.6682C76.648 60.635 75.6305 59.7963 74.4617 59.2177C73.293 58.6391 72.0047 58.3364 70.698 58.3334H67.655L70.5346 52.3873C70.6455 52.1582 70.7021 51.907 70.6999 51.6529C70.6978 51.3989 70.637 51.1486 70.5223 50.9214L63.7889 37.5881C63.6491 37.3112 63.4342 37.0784 63.1683 36.9156C62.9024 36.7529 62.5959 36.6667 62.2833 36.6667H55.55V28.3334C55.7711 28.3334 55.99 28.2903 56.1942 28.2065C56.3984 28.1228 56.584 28 56.7403 27.8453C56.8966 27.6905 57.0206 27.5068 57.1052 27.3045C57.1898 27.1023 57.2333 26.8856 57.2333 26.6667V6.66666C57.2333 4.89855 56.5239 3.20286 55.2612 1.95262C53.9984 0.702378 52.2858 0 50.5 0C48.7142 0 47.0016 0.702378 45.7388 1.95262C44.4761 3.20286 43.7667 4.89855 43.7667 6.66666V15.3004L42.6617 15.5192C39.0087 16.2384 35.2354 16.0872 31.6531 15.078C27.4276 13.8784 22.901 14.295 18.9711 16.2451C17.7838 16.8294 16.4759 17.1334 15.15 17.1334C13.8242 17.1334 12.5163 16.8293 11.329 16.245C9.67434 15.4284 7.85115 15.0023 6.00232 15.0001H1.68333C1.46227 15.0001 1.24338 15.0432 1.03914 15.127C0.834908 15.2107 0.649336 15.3335 0.493023 15.4882C0.33671 15.643 0.212716 15.8267 0.128123 16.0289C0.04353 16.2312 -6.35506e-06 16.4479 6.95795e-10 16.6668V98.3334C-4.4207e-06 98.5522 0.0435335 98.769 0.128128 98.9712C0.212722 99.1734 0.336715 99.3571 0.493028 99.5119C0.649341 99.6666 0.834912 99.7894 1.03915 99.8731C1.24338 99.9569 1.46227 100 1.68333 100ZM53.8667 25.0001H47.1333V10.0001H53.8667V25.0001ZM45.45 30.0001V36.6667H38.7167C38.404 36.6667 38.0976 36.7529 37.8317 36.9156C37.5658 37.0784 37.3509 37.3112 37.2111 37.5881L30.943 50H30.3V30.0001H45.45ZM16.8333 73.3334V53.3334H30.918L40.4866 73.3334H16.8333ZM3.36667 73.3334V53.3334H13.4667V73.3334H3.36667ZM26.9333 50H3.36667V30.0001H26.9333V50ZM3.36667 76.6667H26.9333V96.6667H3.36667V76.6667ZM30.3 76.6667H42.0813L44.2055 81.1066C44.7721 82.291 45.6719 83.2883 46.797 83.9787C47.9221 84.6692 49.2245 85.0234 50.548 84.9988C51.8714 84.9743 53.1595 84.572 54.2577 83.8404C55.3558 83.1087 56.2173 82.0787 56.7387 80.8741L58.7764 76.6667H70.7V96.6667H30.3L30.3 76.6667ZM97.6333 96.6667H74.0667V76.6667H97.6333V96.6667ZM70.698 61.6667C71.4823 61.6685 72.2555 61.8502 72.9569 62.1974C73.6584 62.5447 74.2691 63.0481 74.7412 63.6681C75.8383 65.1044 77.3735 66.1527 79.1193 66.6578C80.8651 67.1628 82.7288 67.0978 84.4344 66.4723L89.0542 64.7569C90.0149 64.4002 91.0485 64.2793 92.0667 64.4046C93.0848 64.5298 94.0572 64.8975 94.9005 65.4761C95.7437 66.0547 96.4328 66.827 96.9088 67.7269C97.3847 68.6268 97.6334 69.6275 97.6333 70.6433V73.3334H60.3907L66.0407 61.6667L70.698 61.6667ZM61.243 40.0001L67.1424 51.6821L53.6866 79.4668C53.6748 79.4912 53.6637 79.5158 53.6531 79.5406C53.3902 80.1588 52.9522 80.6884 52.392 81.0655C51.8318 81.4426 51.1734 81.6511 50.4961 81.6658C49.8188 81.6806 49.1518 81.5008 48.5754 81.1484C47.9991 80.7959 47.5381 80.2859 47.2481 79.6797L33.8554 51.6864L39.757 40.0001H45.45V48.3334C45.45 49.6595 45.982 50.9312 46.9291 51.8689C47.8762 52.8066 49.1607 53.3334 50.5 53.3334C51.8393 53.3334 53.1238 52.8066 54.0709 51.8689C55.0179 50.9312 55.55 49.6595 55.55 48.3334V40.0001H61.243ZM52.1833 48.3334C52.1833 48.7754 52.006 49.1993 51.6903 49.5119C51.3746 49.8245 50.9465 50 50.5 50C50.0536 50 49.6254 49.8245 49.3097 49.5119C48.994 49.1993 48.8167 48.7754 48.8167 48.3334V28.3334H52.1833V48.3334ZM50.5 3.33343C51.3926 3.33441 52.2483 3.68591 52.8795 4.31079C53.5106 4.93568 53.8657 5.78292 53.8667 6.66666V6.66676H47.1333V6.66666C47.1344 5.78293 47.4894 4.93568 48.1205 4.3108C48.7517 3.68591 49.6074 3.33442 50.5 3.33343H50.5ZM6.00233 18.3334C7.32859 18.335 8.63645 18.6407 9.82343 19.2265C11.4786 20.041 13.3018 20.4649 15.1501 20.4649C16.9984 20.4649 18.8216 20.041 20.4767 19.2265C23.6534 17.6501 27.3125 17.3134 30.7282 18.2832C34.8263 19.4377 39.143 19.6106 43.3219 18.7878L43.7667 18.6998V26.6667H3.36668V18.3334H6.00233Z" fill="white"/>
</svg>
