<svg width="44" height="39" viewBox="0 0 44 39" fill="none" xmlns="http://www.w3.org/2000/svg">
<path d="M5.82884 38.074C5.00446 38.074 4.2049 37.9416 3.4506 37.6806L1.73285 37.0863L3.05275 35.8365C4.79974 34.1822 5.24063 32.2741 5.26932 30.8449C2.24989 27.4972 0.592285 23.3206 0.592285 19.037C0.591733 8.54017 10.3282 0 22.2956 0C34.263 0 44 8.54017 44 19.037C44 29.5333 34.263 38.0729 22.2956 38.0729C18.7326 38.0729 15.2177 37.301 12.0851 35.8343C10.9048 36.6703 8.52051 38.074 5.82884 38.074ZM11.8263 33.243L12.4598 33.5636C15.4378 35.0695 18.8391 35.8663 22.295 35.8663C33.0457 35.8663 41.7923 28.3166 41.7923 19.0376C41.7923 9.75744 33.0457 2.20774 22.295 2.20774C11.5444 2.20774 2.79837 9.75744 2.79837 19.037C2.79837 22.8935 4.35113 26.664 7.17137 29.6531L7.4583 29.9571L7.47155 30.3748C7.5201 31.8751 7.25083 33.9096 5.91713 35.8657C8.47306 35.8249 10.8226 34.0459 11.2718 33.6867L11.8263 33.243Z" fill="#B7FF1F"/>
<path d="M11.7684 24.2438C10.9589 24.2438 10.3017 24.1803 9.79405 24.0529C9.2875 23.9265 8.93711 23.7963 8.74453 23.6638C8.69597 23.6153 8.67776 23.5044 8.68935 23.3289C8.70094 23.1551 8.72853 22.973 8.77102 22.7865C8.81295 22.6 8.86758 22.4322 8.9338 22.2893C9.00001 22.1447 9.06292 22.0774 9.12417 22.0901C9.43814 22.1988 9.77915 22.3048 10.1472 22.4068C10.5152 22.5089 10.9832 22.5602 11.5504 22.5602C12.1304 22.5602 12.6215 22.4769 13.027 22.307C13.4309 22.1376 13.634 21.8357 13.634 21.4015C13.634 21.0257 13.5005 20.7217 13.2351 20.4866C12.9696 20.2515 12.4923 20.0005 11.8042 19.7361C11.4296 19.5899 11.077 19.4305 10.7448 19.255C10.4121 19.0806 10.1202 18.8748 9.86633 18.6392C9.61251 18.4041 9.41386 18.1232 9.26874 17.7977C9.12361 17.4721 9.05078 17.0853 9.05078 16.6384C9.05078 16.2764 9.12086 15.9321 9.25936 15.6059C9.39786 15.2798 9.61251 14.999 9.9022 14.7639C10.1919 14.5288 10.5633 14.3412 11.0163 14.2027C11.4693 14.0637 12.0095 13.9941 12.6375 13.9941C13.0474 13.9941 13.389 14.0035 13.6605 14.0212C13.932 14.0394 14.1549 14.0637 14.3309 14.094C14.5053 14.1244 14.6477 14.1575 14.7564 14.1939C14.8651 14.2303 14.9677 14.2601 15.0643 14.2844C15.1487 14.3203 15.1912 14.4262 15.1912 14.6011C15.1912 14.776 15.1664 14.9631 15.1183 15.1628C15.0703 15.3615 15.0036 15.537 14.9197 15.6876C14.8347 15.8388 14.7503 15.9023 14.6659 15.878C14.4606 15.8178 14.1797 15.7516 13.8238 15.6793C13.4674 15.6065 13.1208 15.5706 12.7826 15.5706C12.0939 15.5706 11.6205 15.6677 11.3612 15.8603C11.1013 16.0534 10.9716 16.3128 10.9716 16.6389C10.9716 16.9893 11.1167 17.2702 11.4064 17.4809C11.6961 17.6917 12.1491 17.9064 12.7644 18.1238C13.7422 18.5101 14.4639 18.9537 14.9285 19.4547C15.3931 19.9558 15.626 20.5865 15.626 21.3474C15.626 21.9152 15.5173 22.3864 15.3004 22.7611C15.0825 23.1352 14.7928 23.4315 14.4308 23.6473C14.0688 23.8658 13.655 24.0192 13.1904 24.1097C12.7252 24.1985 12.2512 24.2438 11.7684 24.2438Z" fill="#B7FF1F"/>
<path d="M24.8256 24.1534C24.5723 24.1534 24.4062 24.1115 24.3284 24.0265C24.249 23.9426 24.2109 23.7799 24.2109 23.5371V17.1986C23.7281 17.9832 23.3556 18.5897 23.0957 19.0184C22.8353 19.4477 22.6471 19.7617 22.5257 19.9609C22.4048 20.159 22.332 20.2776 22.3072 20.3135C22.2835 20.3499 22.2724 20.3747 22.2724 20.3869C22.1643 20.5678 22.0881 20.6854 22.0462 20.74C22.0031 20.7957 21.9154 20.8211 21.783 20.8211H21.4933C21.3366 20.8211 21.2334 20.7941 21.1854 20.74C21.1374 20.6854 21.0645 20.5678 20.968 20.3869L19.1205 17.2361V23.6474C19.1205 23.8047 19.0935 23.9288 19.0389 24.0193C18.9848 24.1098 18.843 24.1551 18.6134 24.1551H17.8536C17.6842 24.1551 17.5369 24.128 17.4094 24.0734C17.2831 24.0193 17.2191 23.8417 17.2191 23.5387V14.8452C17.2191 14.6035 17.2643 14.4434 17.3548 14.3651C17.4453 14.2867 17.575 14.2476 17.7444 14.2476H18.6499C18.7823 14.2476 18.8943 14.2652 18.9848 14.3016C19.0753 14.3381 19.1686 14.4285 19.2657 14.5731L21.6737 18.4125L24.0823 14.6095C24.1552 14.4766 24.2418 14.3833 24.3461 14.3287C24.4493 14.274 24.5475 14.2476 24.6446 14.2476H25.6411C25.8707 14.2476 26.0026 14.2956 26.0401 14.3921C26.0765 14.4892 26.0942 14.646 26.0942 14.8634V23.6276C26.0942 23.8086 26.0704 23.9421 26.0219 24.0271C25.9733 24.112 25.8343 24.1534 25.6058 24.1534H24.8256Z" fill="#B7FF1F"/>
<path d="M30.8573 24.2438C30.0472 24.2438 29.3906 24.1803 28.8829 24.0529C28.3764 23.9265 28.0255 23.7963 27.8334 23.6638C27.7849 23.6153 27.7667 23.5044 27.7782 23.3289C27.7898 23.1551 27.8163 22.973 27.8594 22.7865C27.9013 22.6 27.9554 22.4322 28.0221 22.2893C28.0878 22.1442 28.1507 22.0774 28.2125 22.0901C28.5265 22.1988 28.868 22.3048 29.2355 22.4068C29.603 22.5095 30.071 22.5602 30.6388 22.5602C31.2187 22.5602 31.7093 22.4769 32.1154 22.307C32.5187 22.1376 32.7229 21.8357 32.7229 21.4015C32.7229 21.0257 32.5894 20.7217 32.3234 20.4866C32.0574 20.2515 31.5807 20.0005 30.892 19.7361C30.5174 19.5899 30.1653 19.4305 29.8326 19.255C29.4999 19.0806 29.208 18.8748 28.9536 18.6392C28.7003 18.4041 28.5017 18.1232 28.3565 17.7977C28.2109 17.4716 28.1386 17.0853 28.1386 16.6384C28.1386 16.2764 28.2086 15.9321 28.3466 15.6059C28.4857 15.2798 28.7003 14.999 28.99 14.7639C29.2797 14.5288 29.6505 14.3412 30.1035 14.2027C30.5571 14.0637 31.0979 13.9941 31.7247 13.9941C32.1352 13.9941 32.4768 14.0035 32.7477 14.0212C33.0192 14.0394 33.2421 14.0637 33.4187 14.094C33.5925 14.1244 33.7349 14.1575 33.8442 14.1939C33.9523 14.2298 34.0555 14.2601 34.1526 14.2844C34.2365 14.3203 34.279 14.4262 34.279 14.6011C34.279 14.776 34.2541 14.9631 34.2056 15.1628C34.1581 15.3615 34.0914 15.537 34.008 15.6876C33.9231 15.8388 33.8381 15.9023 33.7537 15.878C33.5489 15.8178 33.267 15.7516 32.9122 15.6793C32.5557 15.6065 32.2086 15.5706 31.8709 15.5706C31.1823 15.5706 30.7083 15.6677 30.4495 15.8603C30.1896 16.0534 30.0594 16.3128 30.0594 16.6389C30.0594 16.9893 30.2051 17.2702 30.4947 17.4809C30.7839 17.6917 31.2375 17.9064 31.8527 18.1238C32.83 18.5101 33.5523 18.9537 34.0169 19.4547C34.4815 19.9558 34.7143 20.5865 34.7143 21.3474C34.7143 21.9152 34.6056 22.3864 34.3888 22.7611C34.1708 23.1352 33.8811 23.4315 33.5191 23.6473C33.1572 23.8658 32.7433 24.0192 32.2787 24.1097C31.8124 24.1985 31.3401 24.2438 30.8573 24.2438Z" fill="#B7FF1F"/>
</svg>
