<svg width="105" height="106" viewBox="0 0 105 106" fill="none" xmlns="http://www.w3.org/2000/svg">
<path d="M69.1512 30.7856C67.3977 28.5087 64.1304 28.0838 61.8527 29.8373L43.4525 43.9983C40.3369 38.7893 38.5207 32.9068 38.1593 26.8481C36.5082 10.338 34.9691 0.997681 22.5538 0.997681H1.73527C0.776703 0.997681 0 1.77438 0 2.73295V103.356C0 104.315 0.776703 105.092 1.73527 105.092H71.1311C71.9784 105.092 72.7011 104.48 72.8417 103.645C73.342 100.304 73.6224 96.934 73.6804 93.5564L75.5173 95.9429C76.3559 97.0404 77.5996 97.7568 78.9696 97.9315C79.1959 97.9609 79.4238 97.9752 79.6518 97.976C80.7978 97.976 81.9112 97.5948 82.8173 96.8935L102.064 82.079C104.339 80.3238 104.764 77.0582 103.013 74.7797L69.1512 30.7856ZM69.6213 101.622H64.6252C65.386 98.2007 65.822 94.7159 65.926 91.2128C65.926 90.2542 65.1493 89.4775 64.1916 89.4775C63.233 89.4775 62.4563 90.2542 62.4563 91.2128C62.33 94.7183 61.867 98.2039 61.0752 101.622H3.46975V4.46743H22.5538C31.2047 4.46743 32.9185 9.30951 34.7062 27.1959C35.5314 35.3807 37.5144 41.4323 41.0565 46.6492C40.2631 48.3917 40.4934 50.4287 41.6553 51.9504L70.1773 89.0042C70.3194 93.2181 70.1336 97.4367 69.6213 101.622ZM99.9461 79.3311L80.7009 94.1449C79.9408 94.7286 78.852 94.5864 78.2675 93.8272L44.4055 49.8323C43.821 49.0731 43.9623 47.9842 44.7208 47.3997L63.9684 32.5852C64.7284 32.0023 65.8172 32.1444 66.4018 32.9037L100.265 76.8978C100.847 77.6578 100.705 78.7466 99.9469 79.3311H99.9461Z" fill="white"/>
<path d="M74.9757 52.5737C73.8066 51.0561 71.6282 50.7733 70.1097 51.9416L67.9933 49.1937C66.8711 47.7348 65.2152 46.7818 63.3894 46.5444C61.5644 46.3069 59.7196 46.8041 58.2607 47.927L56.8859 48.9857C56.3824 49.3597 56.1204 49.976 56.1998 50.5978C56.28 51.2205 56.689 51.751 57.2695 51.986C57.8509 52.2211 58.514 52.125 59.004 51.7335L60.3779 50.6749C61.1078 50.115 62.0298 49.8664 62.9423 49.9839C63.8556 50.1007 64.6839 50.578 65.243 51.3094L67.3603 54.0588C66.6305 54.6195 66.154 55.4479 66.0356 56.3612C65.9165 57.2737 66.1651 58.1957 66.7266 58.9256L80.4848 76.7961C82.2392 79.0706 85.5032 79.4963 87.7825 77.7483L87.7841 77.7467C90.057 75.99 90.4811 72.7251 88.7316 70.4466L74.9757 52.5737ZM85.666 74.9973C84.9068 75.581 83.8172 75.4396 83.2327 74.6804L69.4768 56.8091L72.2262 54.6918L85.9813 72.5623C86.5666 73.3224 86.4253 74.412 85.666 74.9973Z" fill="white"/>
<path d="M30.4574 26.0944C30.3836 22.7986 30.05 19.5139 29.4591 16.2712C27.4324 6.13122 12.5607 7.8665 11.9293 7.95068C11.3083 8.02057 10.7722 8.41845 10.5268 8.99343C10.2814 9.56841 10.364 10.2308 10.7436 10.7279C11.1232 11.2251 11.7403 11.4792 12.3598 11.3934C12.4868 11.3783 24.6552 9.94009 26.0577 16.9527C26.6104 20.0229 26.9225 23.1321 26.9908 26.2516C27.2069 30.9619 27.411 35.4093 29.6767 39.9408C29.9539 40.4952 30.5059 40.8597 31.1245 40.897C31.7432 40.9344 32.3348 40.6381 32.6763 40.1211C33.0178 39.6033 33.0575 38.9434 32.7804 38.389C30.8434 34.5158 30.6639 30.6125 30.4574 26.0944Z" fill="white"/>
</svg>
