<svg width="101" height="102" viewBox="0 0 101 102" fill="none" xmlns="http://www.w3.org/2000/svg">
<path d="M98.6844 0.589111H69.6495C68.6452 0.589111 67.831 1.40334 67.831 2.40758C67.831 3.41183 68.6452 4.22606 69.6495 4.22606H77.6451V19.9624H42.4593V4.22606H63.5877C64.5919 4.22606 65.4062 3.41183 65.4062 2.40758C65.4062 1.40334 64.5921 0.589111 63.5879 0.589111H1.81847C0.81423 0.589111 0 1.40334 0 2.40758V21.7809V41.154V60.5271V79.9004V99.2735C0 100.278 0.81423 101.092 1.81847 101.092H98.6842C99.6884 101.092 100.503 100.278 100.503 99.2735V2.40758C100.503 1.40334 99.6886 0.589111 98.6844 0.589111ZM61.6801 23.5994H96.8655V39.3355H73.2862C72.282 39.3355 71.4677 40.1497 71.4677 41.154C71.4677 42.1582 72.282 42.9725 73.2862 42.9725H77.6451V58.7086H42.4593V42.9725H67.2244C68.2287 42.9725 69.0429 42.1582 69.0429 41.154C69.0429 40.1497 68.2287 39.3355 67.2244 39.3355H61.6801V23.5994ZM96.8657 62.3454V78.0817H61.6801V62.3454H96.8657ZM58.0431 23.5994V39.3355H22.8577V23.5994H58.0431ZM3.63695 4.22606H38.8224V19.9624H3.63695V4.22606ZM3.63695 23.5994H19.2208V39.3355H3.63695V23.5994ZM3.63695 42.9727H38.8224V58.7088H3.63695V42.9727ZM3.63695 62.3454H19.2208V78.0817H3.63695V62.3454ZM38.8224 97.4548H3.63695V81.7187H29.8853C30.8895 81.7187 31.7037 80.9044 31.7037 79.9002C31.7037 78.8959 30.8895 78.0817 29.8853 78.0817H22.8577V62.3454H58.0431V78.0817H35.9468C34.9426 78.0817 34.1284 78.8959 34.1284 79.9002C34.1284 80.9044 34.9426 81.7187 35.9468 81.7187H38.8224V97.4548ZM77.6451 97.4548H42.4593V81.7187H77.6451V97.4548ZM96.8659 97.455H81.2821V81.7189H96.8659V97.455ZM96.8659 58.7084H81.2821V42.9723H96.8659V58.7084ZM96.8659 19.9624H81.2821V4.22606H96.8659V19.9624Z" fill="white"/>
</svg>
