<svg width="19" height="19" viewBox="0 0 19 19" fill="none" xmlns="http://www.w3.org/2000/svg">
<path d="M14.3936 11.2924C14.0204 10.9038 13.5703 10.6961 13.0932 10.6961C12.6199 10.6961 12.1659 10.9 11.7774 11.2886L10.5616 12.5005C10.4615 12.4466 10.3615 12.3966 10.2653 12.3466C10.1268 12.2773 9.99601 12.2119 9.88444 12.1427C8.7456 11.4194 7.71065 10.4767 6.71802 9.25712C6.23709 8.64923 5.91391 8.13752 5.67922 7.61812C5.99471 7.32957 6.28711 7.02947 6.57182 6.74091C6.67954 6.63319 6.78727 6.52161 6.895 6.41388C7.70295 5.60593 7.70295 4.55943 6.895 3.75148L5.84466 2.70113C5.72539 2.58186 5.60227 2.45875 5.48685 2.33563C5.256 2.09709 5.01362 1.85086 4.76353 1.62001C4.39034 1.25066 3.94404 1.05444 3.47465 1.05444C3.00527 1.05444 2.55127 1.25066 2.16653 1.62001C2.16269 1.62386 2.16269 1.62386 2.15884 1.62771L0.850719 2.94737C0.358251 3.43984 0.0773901 4.04003 0.0158315 4.73641C-0.0765063 5.85986 0.254371 6.90635 0.5083 7.59119C1.13158 9.27251 2.06265 10.8307 3.45157 12.5005C5.13673 14.5127 7.16432 16.1017 9.48046 17.2213C10.3654 17.6406 11.5465 18.1369 12.8662 18.2216C12.947 18.2254 13.0316 18.2293 13.1086 18.2293C13.9973 18.2293 14.7437 17.9099 15.3285 17.2751C15.3324 17.2674 15.3401 17.2636 15.3439 17.2559C15.544 17.0135 15.7748 16.7942 16.0172 16.5595C16.1826 16.4018 16.3519 16.2363 16.5174 16.0632C16.8983 15.6669 17.0983 15.2052 17.0983 14.732C17.0983 14.2549 16.8944 13.7971 16.5058 13.4123L14.3936 11.2924ZM15.771 15.3437C15.7671 15.3437 15.7671 15.3476 15.771 15.3437C15.6209 15.5053 15.467 15.6515 15.3016 15.8131C15.0515 16.0516 14.7976 16.3017 14.559 16.5826C14.1705 16.9981 13.7126 17.1943 13.1124 17.1943C13.0547 17.1943 12.9931 17.1943 12.9354 17.1905C11.7928 17.1174 10.7309 16.6711 9.93445 16.2902C7.75682 15.236 5.84466 13.7394 4.25568 11.8426C2.94371 10.2613 2.0665 8.79928 1.48554 7.22954C1.12773 6.27153 0.996921 5.52513 1.05463 4.82106C1.09311 4.37091 1.26624 3.99771 1.58557 3.67838L2.89754 2.36641C3.08606 2.18943 3.28613 2.09324 3.48235 2.09324C3.72473 2.09324 3.92095 2.23945 4.04407 2.36256C4.04792 2.36641 4.05176 2.37026 4.05561 2.3741C4.2903 2.59341 4.51345 2.8204 4.74814 3.06279C4.86741 3.18591 4.99053 3.30903 5.11365 3.43599L6.16399 4.48633C6.57182 4.89416 6.57182 5.2712 6.16399 5.67903C6.05242 5.7906 5.94469 5.90218 5.83311 6.00991C5.50993 6.34078 5.20214 6.64858 4.86741 6.94867C4.85972 6.95637 4.85203 6.96022 4.84818 6.96791C4.5173 7.29879 4.57886 7.62197 4.64811 7.84127C4.65196 7.85281 4.65581 7.86436 4.65965 7.8759C4.93282 8.53765 5.31756 9.16093 5.90237 9.90348L5.90621 9.90733C6.9681 11.2155 8.0877 12.235 9.32271 13.016C9.48046 13.1161 9.64205 13.1969 9.79595 13.2738C9.93445 13.3431 10.0653 13.4085 10.1768 13.4777C10.1922 13.4854 10.2076 13.497 10.223 13.5047C10.3538 13.5701 10.4769 13.6008 10.6039 13.6008C10.9232 13.6008 11.1233 13.4008 11.1887 13.3354L12.5045 12.0196C12.6353 11.8887 12.8431 11.731 13.0855 11.731C13.324 11.731 13.5202 11.8811 13.6395 12.0119C13.6434 12.0157 13.6434 12.0157 13.6472 12.0196L15.7671 14.1395C16.1634 14.5319 16.1634 14.9359 15.771 15.3437Z" fill="#B7FF1F"/>
<path d="M9.83827 4.33627C10.8463 4.50556 11.762 4.98264 12.493 5.71365C13.224 6.44465 13.6972 7.36034 13.8704 8.36836C13.9127 8.62229 14.132 8.79927 14.3821 8.79927C14.4128 8.79927 14.4398 8.79542 14.4705 8.79157C14.7553 8.7454 14.9438 8.47609 14.8976 8.19138C14.6899 6.97175 14.1127 5.85985 13.2317 4.97879C12.3506 4.09773 11.2387 3.52062 10.0191 3.31286C9.73439 3.26669 9.46892 3.45522 9.4189 3.73608C9.36889 4.01694 9.55356 4.2901 9.83827 4.33627Z" fill="#B7FF1F"/>
<path d="M18.1948 8.04131C17.8524 6.03296 16.906 4.20544 15.4516 2.75112C13.9973 1.2968 12.1698 0.350338 10.1614 0.00791854C9.88059 -0.0420978 9.61512 0.150273 9.5651 0.431134C9.51893 0.715842 9.70746 0.981313 9.99216 1.03133C11.7851 1.33527 13.4202 2.18555 14.7206 3.48213C16.0211 4.78255 16.8675 6.4177 17.1714 8.2106C17.2137 8.46452 17.4331 8.64151 17.6831 8.64151C17.7139 8.64151 17.7408 8.63766 17.7716 8.63381C18.0525 8.59149 18.2449 8.32217 18.1948 8.04131Z" fill="#B7FF1F"/>
</svg>
