<?xml version="1.0" encoding="utf-8"?>
<!-- Generator: Adobe Illustrator 19.2.1, SVG Export Plug-In . SVG Version: 6.00 Build 0)  -->
<svg version="1.1" id="Слой_1" xmlns="http://www.w3.org/2000/svg" xmlns:xlink="http://www.w3.org/1999/xlink" x="0px" y="0px"
	 viewBox="0 0 279.4042664 70.6873169" style="enable-background:new 0 0 279.4042664 70.6873169;" xml:space="preserve">
<path style="fill:#FF3636;" d="M84.1822739,31.6873131H80.192276c-0.8613358,0-1.4313354-0.1392994-1.7099991-0.4179993
	c-0.253334-0.2786999-0.3800049-0.8487015-0.3800049-1.710001V6.4173136c0-0.8866701,0.1393356-1.4693303,0.4179993-1.7480011
	c0.2786713-0.3040013,0.8360062-0.4560013,1.6720047-0.4560013h3.9899979V31.6873131z M93.6442719,14.8153133v2.2800007
	c0,0.9119987-0.0886993,1.4946995-0.2659988,1.7479992c-0.1772995,0.2280006-0.6839981,0.342001-1.5199966,0.342001h-6.1560059
	v-4.3700008H93.6442719z M95.1642761,4.2133112v3.268002c0,0.8613305-0.1393051,1.4313302-0.4180069,1.7100005
	c-0.2786942,0.2533293-0.8612976,0.3799992-1.7479935,0.3799992h-7.2960052V4.2133112H95.1642761z M105.195076,31.6873131
	h-3.9900055c-0.8612976,0-1.4312973-0.1392994-1.7099991-0.4179993c-0.2532959-0.2786999-0.3799973-0.8613014-0.3799973-1.7480011
	V5.7333136c0-0.4560003,0.1267014-0.8233304,0.3799973-1.1020002c0.2533035-0.2786679,0.5827026-0.4180021,0.987999-0.4180021
	h4.7120056V31.6873131z M106.7150726,4.2133112h4.8259964c1.4692993,0,2.6220016,0.1140003,3.4580002,0.342
	c0.8613052,0.2280021,1.5073013,0.6840019,1.9380035,1.3680019c0.4307022,0.6586704,0.696701,1.4060001,0.7979965,2.2420006
	c0.1267014,0.8106699,0.1900024,1.9633293,0.1900024,3.4579992s-0.0633011,2.6346998-0.1900024,3.4200001
	c-0.1012955,0.7853003-0.3672943,1.5200014-0.7979965,2.2040014c-0.405304,0.684-1.0513,1.1652985-1.9380035,1.4439983
	c-0.8612976,0.2786999-2.0139999,0.4180012-3.4580002,0.4180012h-4.8259964v-3.6100006h2.8119965
	c0.6587067,0,1.0767059-0.0887003,1.2540054-0.2660007c0.2026978-0.1772995,0.3040009-0.4559994,0.3040009-0.8359995v-5.434
	c0-0.4053297-0.1013031-0.6966696-0.3040009-0.8739996c-0.1772995-0.17733-0.5952988-0.2659998-1.2540054-0.2659998h-2.8119965
	V4.2133112z M110.3630753,20.2873135h4.711998c0.7600021,0,1.3046951,0.2152996,1.6339951,0.6459999
	c0.3293076,0.4053001,0.4940033,1.0767002,0.4940033,2.0139999v8.7399998h-5.4720001
	c-0.4052963,0-0.7347031-0.1392994-0.987999-0.4179993c-0.2533035-0.2786999-0.3799973-0.6459999-0.3799973-1.1020012V20.2873135z
	 M133.2444763,7.8233137h-3.5340118c-0.4053955,0-0.6079865,0.1013298-0.6079865,0.3039999v23.5599995h-3.9900055
	c-0.8613968,0-1.4314041-0.1392994-1.7099991-0.4179993c-0.2534027-0.2786999-0.3800049-0.8613014-0.3800049-1.7480011V6.3793135
	c0-0.8866701,0.1266022-1.4693303,0.3800049-1.7480001c0.278595-0.2786679,0.8486023-0.4180021,1.7099991-0.4180021h8.1320038
	V7.8233137z M134.7644653,4.2133112h3.9900055c0.8612976,0,1.4185944,0.1393342,1.6719971,0.4180021
	c0.2786102,0.2786698,0.4179993,0.86133,0.4179993,1.7480001v23.1040001c0,0.8866997-0.139389,1.4820004-0.4179993,1.7860012
	c-0.2787018,0.2786999-0.8359985,0.4179993-1.6719971,0.4179993h-3.9900055V18.9573135h-4.1419983v-3.6100006h4.1419983V4.2133112z
	 M167.494873,4.2133112v25.3080025c0,0.8866997-0.1392975,1.4693012-0.4179993,1.7480011
	c-0.2533112,0.2786999-0.8106079,0.4179993-1.6719971,0.4179993h-5.3960114c-1.4945984,0-2.4825897-0.2280006-2.9639893-0.684
	c-0.4560089-0.4559994-0.8613129-1.6340008-1.2160034-3.5340004c-0.7093048-3.7493-1.7353058-9.8039989-3.0780029-18.1639996
	c-0.1013031-0.6333294-0.2532959-1.0386696-0.4559937-1.2159996c-0.1773071-0.17733-0.4940033-0.2786703-0.9500122-0.3039999
	h-4.673996V4.2133112h8.2460022c0.6334076,0,1.1399994,0.0760012,1.5200043,0.2280021
	c0.3799896,0.151999,0.6839905,0.4813299,0.9120026,0.9879999c0.2533875,0.4813304,0.4179993,0.9500003,0.493988,1.4060001
	c0.1014099,0.4559999,0.2026978,0.9880004,0.3040009,1.5960002c0.126709,0.7346697,0.3040009,1.8113298,0.5319977,3.2299995
	c0.4307098,2.8627005,1.102005,6.9033003,2.0140076,12.1220007c0.3547058,2.2292995,0.5953979,3.4832993,0.7220001,3.7619991
	c0.1519928,0.2532997,0.4053955,0.4053001,0.7599945,0.4559994V5.7333136c0-0.4560003,0.126709-0.8233304,0.3800049-1.1020002
	c0.2534027-0.2786679,0.5827026-0.4180021,0.9880066-0.4180021H167.494873z M146.6708679,9.1153135h3.9519958
	c0.4054108,0,0.7347107,0.1393299,0.9880066,0.4180002c0.2534027,0.2786694,0.3800049,0.6459999,0.3800049,1.1019993v18.8859997
	c0,0.8612995-0.1139984,1.4440002-0.3420105,1.7480011c-0.2279968,0.2786999-0.6839905,0.4179993-1.3679962,0.4179993h-3.6100006
	V9.1153135z M173.3234711,4.2133112h3.9900055c0.8618011,0,1.4187927,0.1393342,1.6717987,0.4180021
	c0.2789917,0.2786698,0.4179993,0.86133,0.4179993,1.7480001v25.3079987h-3.9898071
	c-0.8614044,0-1.4313965-0.1392994-1.7099915-0.4179993c-0.2534027-0.2786999-0.3800049-0.8613014-0.3800049-1.7480011V4.2133112z
	 M183.5072632,20.3253136h4.3320007c0.7600098,0,1.3050079,0.2152996,1.6340027,0.6459999
	c0.3300018,0.4053001,0.4940033,1.0767002,0.4940033,2.0139999v8.7019997h-5.0919952
	c-0.4049988,0-0.7340088-0.1392994-0.9880066-0.4179993c-0.2529907-0.2786999-0.3800049-0.6459999-0.3800049-1.1020012V20.3253136z
	 M183.6212769,4.2133112h4.3699951c0.7350006,0,1.2039948,0.1393342,1.4059906,0.4180021
	c0.2030029,0.2786698,0.3040009,0.86133,0.3040009,1.7480001v8.0559998c0,1.5199995-0.2779999,2.6600008-0.8359985,3.420001
	c-0.5319977,0.7346992-1.6210022,1.1019993-3.2679901,1.1019993h-4.6740112v-3.6100006h1.6720123
	c0.4559937,0,0.7350006-0.0760002,0.8359985-0.2279997c0.1269989-0.1773005,0.1900024-0.4687004,0.1900024-0.8740005V4.2133112z
	 M97.9762726,40.2133141h5.6999969c1.8493042,0,3.2427063,0.3167,4.1800003,0.9500008
	c0.9626999,0.633297,1.4440002,1.7352982,1.4440002,3.3059998v21.052002c0,0.8866959-0.1392975,1.4692993-0.4179993,1.7480011
	c-0.2532959,0.2786942-0.8106995,0.4179993-1.6719971,0.4179993h-3.9899979V44.925312
	c0-0.4053001-0.0633011-0.6839981-0.1900024-0.8359985c-0.1013031-0.1772995-0.3799973-0.2659988-0.8359985-0.2659988h-4.2180023
	V40.2133141z M84.1822739,67.6873169H80.192276c-0.8613358,0-1.4313354-0.1393051-1.7099991-0.4179993
	c-0.253334-0.2787018-0.3800049-0.8613052-0.3800049-1.7480011v-23.788002c0-0.4560013,0.1266708-0.8233032,0.3800049-1.1020012
	c0.2533264-0.2787018,0.5826645-0.4179993,0.987999-0.4179993h4.711998V67.6873169z M85.7402725,40.2133141h9.7279968
	c0.405304,0,0.7347031,0.1392975,0.9880066,0.4179993c0.2532959,0.278698,0.3799973,0.6459999,0.3799973,1.1020012v23.1800003
	h-3.9520035c-0.7599945,0-1.3046951-0.2026978-1.6339951-0.6080017c-0.3292999-0.4306984-0.4940033-1.1147003-0.4940033-2.0519981
	V44.925312c0-0.4053001-0.0633011-0.6839981-0.1899948-0.8359985c-0.1013031-0.1772995-0.3800049-0.2659988-0.8360062-0.2659988
	h-3.9899979V40.2133141z M125.2569733,43.8233147h-3.5340042c-0.4052963,0-0.6079941,0.1012993-0.6079941,0.303997v23.5600052
	h-3.9900055c-0.8612976,0-1.4312973-0.1393051-1.7099991-0.4179993c-0.2532959-0.2787018-0.3799973-0.8613052-0.3799973-1.7480011
	V42.3793144c0-0.8866997,0.1267014-1.4693031,0.3799973-1.7480011c0.2787018-0.2787018,0.8487015-0.4179993,1.7099991-0.4179993
	h8.1320038V43.8233147z M126.7769699,40.2133141h3.9899979c0.8614044,0,1.4187012,0.1392975,1.6719971,0.4179993
	c0.2787018,0.278698,0.4180145,0.8613014,0.4180145,1.7480011v23.1040001c0,0.8867035-0.1393127,1.4820023-0.4180145,1.7860031
	c-0.278595,0.2786942-0.8359985,0.4179993-1.6719971,0.4179993h-3.9899979V54.9573135h-4.1419983v-3.6100006h4.1419983V40.2133141z
	 M144.9154663,40.2513123v10.906002c0,0.4053001,0.0886993,0.6966972,0.2660065,0.8740005
	c0.2026978,0.1772995,0.6333008,0.2659988,1.2919922,0.2659988h2.8120117v3.6100006h-4.826004
	c-1.4440002,0-2.6092987-0.1520004-3.4960022-0.4560013c-0.8612976-0.3040009-1.5072937-0.8359985-1.9380035-1.5960007
	c-0.4052887-0.7852974-0.6712952-1.6212997-0.7979889-2.5079994c-0.1013031-0.8866997-0.1520081-2.077301-0.1520081-3.5719986
	c0-1.5200005,0.050705-2.6727028,0.1520081-3.4580002c0.1266937-0.7853012,0.3927002-1.5200005,0.7979889-2.2040024
	c0.4307098-0.6839981,1.0767059-1.1652985,1.9380035-1.4440002c0.8867035-0.278698,2.052002-0.4179993,3.4960022-0.4179993
	H144.9154663z M150.8054657,52.2973137h0.4560089c1.0892944,0,1.925293,0.0252991,2.5079956,0.0760002
	c0.6080017,0.0252991,1.1907043,0.1392975,1.7480011,0.3419991c0.5572968,0.1772995,0.9373016,0.3927002,1.1399994,0.6459999
	c0.2279968,0.2532997,0.4306946,0.696701,0.6080017,1.3300018c0.2026978,0.6079979,0.3166962,1.2666969,0.3419952,1.9759979
	s0.0380096,1.722702,0.0380096,3.0400009s-0.0127106,2.3686981-0.0380096,3.1539993
	c-0.0252991,0.7599983-0.1392975,1.4947052-0.3419952,2.2040024c-0.1773071,0.6839981-0.3800049,1.1652985-0.6080017,1.4440002
	c-0.2026978,0.2787018-0.5827026,0.5319977-1.1399994,0.7600021c-0.5572968,0.2026978-1.1399994,0.3292999-1.7480011,0.3799973
	c-0.5827026,0.0252991-1.4187012,0.038002-2.5079956,0.038002h-0.4560089V52.2973137z M138.6074677,59.2133141h4.7880096
	c0.3546906,0,0.5699921,0.0506973,0.6459961,0.1520004c0.076004,0.1012993,0.1139984,0.3167,0.1139984,0.6459999v2.9639969
	c0,0.4053001,0.050705,0.696701,0.1519928,0.8740005c0.126709,0.1520004,0.4179993,0.2280045,0.8740082,0.2280045h4.1040039
	v3.6100006h-5.5860138c-1.8492889,0-3.2552948-0.3167038-4.2179871-0.9500046
	c-0.9373016-0.6333008-1.4060059-1.7352982-1.4060059-3.3059998v-3.4199982
	C138.07547,59.4793129,138.2527771,59.2133141,138.6074677,59.2133141z M146.4354706,40.2133141h4.826004
	c1.8492889,0,3.242691,0.3167,4.1799927,0.9500008c0.9627075,0.633297,1.4440002,1.7352982,1.4440002,3.3059998v3.4199982
	c0,0.5320015-0.1772919,0.7980003-0.5319977,0.7980003h-4.7879944c-0.3547058,0-0.5700073-0.0507011-0.6460114-0.1520004
	c-0.0759888-0.1012993-0.1139984-0.3167-0.1139984-0.6459999V44.925312c0-0.4053001-0.0632935-0.6839981-0.1900024-0.8359985
	c-0.1012878-0.1772995-0.3799896-0.2659988-0.8359985-0.2659988h-3.3439941V40.2133141z M169.2743683,40.2133141v22.7619972
	c0,0.3800011,0.0886993,0.6587029,0.2660065,0.8360023c0.2026978,0.1772995,0.6333008,0.2660027,1.2919922,0.2660027h2.8119965
	v3.6100006h-4.8259888c-1.0133057,0-1.8619995-0.076004-2.5460052-0.2280045
	c-0.6587067-0.1520004-1.2413025-0.4559937-1.7480011-0.9119949c-0.4812927-0.4813004-0.8612976-1.0133057-1.1399994-1.5960007
	c-0.2532959-0.5827026-0.4559937-1.4567032-0.6080017-2.6220055c-0.2279968-1.7479973-0.3419952-4.0912971-0.3419952-7.0299988
	c0-2.9640007,0.0126953-5.0540009,0.0379944-6.2700005c0.050705-1.2159996,0.1520081-2.3939972,0.3040009-3.5340004
	c0.1520081-1.1652985,0.3547058-2.0266991,0.6080017-2.5839996c0.2787018-0.5826988,0.6587067-1.1019974,1.1399994-1.5579987
	c0.5066986-0.4813004,1.0892944-0.7853012,1.7480011-0.9119987c0.6840057-0.1520004,1.5326996-0.2280006,2.5460052-0.2280006
	H169.2743683z M170.7943726,40.2513123h4.826004c1.0132904,0,1.8488922,0.0760002,2.5078888,0.2280006
	c0.6840057,0.1520004,1.2669983,0.4687004,1.7480011,0.9500008c0.5070038,0.4560013,0.8870087,0.9752998,1.1399994,1.5579987
	c0.279007,0.5827026,0.4940033,1.4566994,0.6460114,2.6220016c0.2279968,1.7479973,0.3419952,4.1040001,0.3419952,7.0680008
	c0,2.9386978-0.0250092,5.0159988-0.076004,6.2319984c-0.0249939,1.2159996-0.1139984,2.4067001-0.2659912,3.5719986
	c-0.1520081,1.1399994-0.3670044,2.0013008-0.6460114,2.5840034c-0.2529907,0.5572968-0.6329956,1.0766983-1.1399994,1.5579987
	c-0.4810028,0.4560013-1.0639954,0.7600021-1.7480011,0.9120026c-0.6589966,0.1267014-1.4945984,0.1900024-2.5078888,0.1900024
	h-0.4560089V44.9633141c0-0.3800011-0.1013031-0.6587029-0.3040009-0.8360023
	c-0.1772919-0.1772995-0.5952911-0.2659988-1.2539978-0.2659988h-2.8119965V40.2513123z M208.3242645,40.2133141v25.3080025
	c0,0.8866959-0.1389923,1.4692993-0.4179993,1.7480011c-0.253006,0.2786942-0.8110046,0.4179993-1.6719971,0.4179993h-5.3959961
	c-1.4949951,0-2.4830017-0.2280045-2.9640045-0.6839981c-0.4559937-0.4560013-0.8609924-1.6340027-1.2160034-3.5340042
	c-0.7089996-3.7493019-1.7350006-9.8040009-3.0779877-18.1640015c-0.1010132-0.6333008-0.253006-1.0387001-0.4560089-1.2159996
	c-0.177002-0.1772995-0.4940033-0.2787018-0.9499969-0.3040009h-4.673996v-3.5719986h8.2460022
	c0.6329956,0,1.1399994,0.0760002,1.519989,0.2280006c0.3800049,0.1519966,0.6840057,0.4812965,0.9120026,0.987999
	c0.253006,0.4813004,0.4179993,0.9500008,0.4940033,1.4059982c0.1009979,0.4560013,0.2030029,0.9880028,0.3040009,1.5960007
	c0.1269989,0.7346992,0.3040009,1.8113022,0.5319977,3.2299995c0.4309998,2.8627014,1.102005,6.9033012,2.0139923,12.1220016
	c0.355011,2.2292976,0.5950012,3.4832993,0.7220001,3.762001c0.1520081,0.2532997,0.405014,0.4053001,0.7600098,0.4559975
	V41.7333145c0-0.4560013,0.1269989-0.8233032,0.3800049-1.1020012c0.2529907-0.2787018,0.5829926-0.4179993,0.9879913-0.4179993
	H208.3242645z M187.5002747,45.1153145h3.9519958c0.4049988,0,0.7350006,0.1392975,0.9880066,0.4179993
	c0.2529907,0.278698,0.3799896,0.6459999,0.3799896,1.1020012v18.8860016c0,0.8612976-0.1139984,1.4440002-0.3419952,1.7480011
	c-0.2279968,0.2786942-0.6840057,0.4179993-1.3679962,0.4179993h-3.6100006V45.1153145z M220.2322693,67.6873169h-3.9900055
	c-0.8609924,0-1.4309998-0.1393051-1.7099915-0.4179993c-0.253006-0.2787018-0.3800049-0.8613052-0.3800049-1.7480011v-23.788002
	c0-0.4560013,0.1269989-0.8233032,0.3800049-1.1020012c0.2539978-0.2787018,0.5829926-0.4179993,0.9879913-0.4179993h4.7120056
	V67.6873169z M221.7522736,40.2133141h4.8259888c1.4700012,0,2.6220093,0.1139984,3.4580078,0.3419991
	c0.8619995,0.2280006,1.5079956,0.6839981,1.9380035,1.368c0.4309998,0.658699,0.696991,1.4059982,0.7979889,2.2420006
	c0.1269989,0.8106995,0.1900024,1.9632988,0.1900024,3.4580002c0,1.4946976-0.0630035,2.6347008-0.1900024,3.4199982
	c-0.1009979,0.7853012-0.3669891,1.5200005-0.7979889,2.2040024c-0.405014,0.6839981-1.0510101,1.1652985-1.9380035,1.4440002
	c-0.8610077,0.278698-2.0140076,0.4179993-3.4580078,0.4179993h-4.8259888v-3.6100006h2.8119965
	c0.6589966,0,1.0769958-0.0886993,1.2539978-0.2659988c0.2030029-0.1773033,0.3040009-0.4560013,0.3040009-0.8360023v-5.4339981
	c0-0.4053001-0.1009979-0.696701-0.3040009-0.8740005c-0.177002-0.1772995-0.5950012-0.2659988-1.2539978-0.2659988h-2.8119965
	V40.2133141z M225.4002686,56.2873116h4.7119904c0.7600098,0,1.3050079,0.2153015,1.6340027,0.6459999
	c0.3300018,0.4053001,0.4940033,1.0767021,0.4940033,2.0139999v8.7400055h-5.4720001
	c-0.4049988,0-0.7339935-0.1393051-0.9879913-0.4179993c-0.253006-0.2787018-0.3800049-0.6460037-0.3800049-1.102005V56.2873116z
	 M243.1142731,40.2133141v10.829998c0,0.4053001,0.0629883,0.696701,0.1899872,0.8740005
	c0.1260071,0.1520004,0.4179993,0.2280006,0.8740082,0.2280006h1.3679962v3.6100006h-5.9279938
	c-0.9629974,0-1.6340027-0.2153015-2.0140076-0.6459999c-0.3799896-0.4560013-0.5699921-1.1527023-0.5699921-2.0900002V41.9993134
	c0-1.1907005,0.6959991-1.7859993,2.0899963-1.7859993H243.1142731z M249.3082733,67.6873169h-4.75
	c-0.8619995,0-1.4320068-0.1393051-1.7100067-0.4179993c-0.2539978-0.2787018-0.3800049-0.8613052-0.3800049-1.7480011v-6.0800018
	c0-0.8867035,0.1260071-1.4693031,0.3800049-1.7480011c0.2779999-0.2787018,0.8480072-0.4179993,1.7100067-0.4179993h4.75
	V67.6873169z M249.0042725,40.2133141h3.9899902c0.7600098,0,1.2920074,0.1520004,1.5960083,0.4559975
	c0.3289948,0.3040009,0.493988,0.8740005,0.493988,1.7100029V53.095314c0,1.7733002-0.7349854,2.6599998-2.2039948,2.6599998
	h-5.8139954v-3.6100006h0.9120026c0.4559937,0,0.7339935-0.0886993,0.8359985-0.2659988
	c0.1259918-0.1772995,0.1900024-0.4560013,0.1900024-0.8360023V40.2133141z M266.0482788,40.2513123v10.906002
	c0,0.4053001,0.0879822,0.6966972,0.2659912,0.8740005c0.2019958,0.1772995,0.6329956,0.2659988,1.2919922,0.2659988h2.8120117
	v3.6100006h-4.8259888c-1.4440002,0-2.6100159-0.1520004-3.4960022-0.4560013
	c-0.8619995-0.3040009-1.5079956-0.8359985-1.9380188-1.5960007c-0.4059753-0.7852974-0.6719971-1.6212997-0.7980042-2.5079994
	c-0.1019897-0.8866997-0.1519775-2.077301-0.1519775-3.5719986c0-1.5200005,0.0499878-2.6727028,0.1519775-3.4580002
	c0.1260071-0.7853012,0.3920288-1.5200005,0.7980042-2.2040024c0.4300232-0.6839981,1.0760193-1.1652985,1.9380188-1.4440002
	c0.8859863-0.278698,2.052002-0.4179993,3.4960022-0.4179993H266.0482788z M271.9382629,52.2973137h0.4560242
	c1.0889893,0,1.9249878,0.0252991,2.5079956,0.0760002c0.6080017,0.0252991,1.1900024,0.1392975,1.7479858,0.3419991
	c0.5570068,0.1772995,0.9370117,0.3927002,1.1400146,0.6459999c0.2279968,0.2532997,0.4299927,0.696701,0.6080017,1.3300018
	c0.2019958,0.6079979,0.315979,1.2666969,0.34198,1.9759979c0.0249939,0.709301,0.0379944,1.722702,0.0379944,3.0400009
	s-0.0130005,2.3686981-0.0379944,3.1539993c-0.026001,0.7599983-0.1399841,1.4947052-0.34198,2.2040024
	c-0.178009,0.6839981-0.3800049,1.1652985-0.6080017,1.4440002c-0.2030029,0.2787018-0.5830078,0.5319977-1.1400146,0.7600021
	c-0.5579834,0.2026978-1.1399841,0.3292999-1.7479858,0.3799973c-0.5830078,0.0252991-1.4190063,0.038002-2.5079956,0.038002
	h-0.4560242V52.2973137z M259.7402649,59.2133141h4.7879944c0.3540039,0,0.5700073,0.0506973,0.6460266,0.1520004
	c0.0759888,0.1012993,0.1139832,0.3167,0.1139832,0.6459999v2.9639969c0,0.4053001,0.0500183,0.696701,0.1520081,0.8740005
	c0.1260071,0.1520004,0.4179993,0.2280045,0.8739929,0.2280045h4.1040039v3.6100006h-5.5859985
	c-1.8500061,0-3.256012-0.3167038-4.2179871-0.9500046c-0.9380188-0.6333008-1.4060059-1.7352982-1.4060059-3.3059998v-3.4199982
	C259.2082825,59.4793129,259.3852844,59.2133141,259.7402649,59.2133141z M267.5682678,40.2133141h4.8260193
	c1.848999,0,3.2419739,0.3167,4.1799927,0.9500008c0.9620056,0.633297,1.4440002,1.7352982,1.4440002,3.3059998v3.4199982
	c0,0.5320015-0.178009,0.7980003-0.5320129,0.7980003h-4.7879944c-0.355011,0-0.5700073-0.0507011-0.6459961-0.1520004
	s-0.1140137-0.3167-0.1140137-0.6459999V44.925312c0-0.4053001-0.0639954-0.6839981-0.1900024-0.8359985
	c-0.1019897-0.1772995-0.3799744-0.2659988-0.8359985-0.2659988h-3.3439941V40.2133141z"/>
<g>
	<path style="fill:#E67A00;" d="M70.6875687,53.6250114V50.439209c0-0.9029007-0.2101974-1.7933998-0.6139984-2.6009979
		c-0.403801-0.8075027-0.990097-1.5100021-1.7123947-2.0517006c-0.7813034-0.5860023-1.6976013-0.9658012-2.6643066-1.1044006
		c-0.9666977-0.1385002-1.9528008-0.0313988-2.8672981,0.3115005l-3.344902,1.2542992
		c-0.9874992,0.3703995-2.0684013,0.4105988-3.0806999,0.1148987c-1.0123024-0.2957993-1.9015007-0.9116974-2.5343018-1.7553978
		c-0.4543991-0.6058006-1.043499-1.0974998-1.7207985-1.4361992c-0.6773987-0.3386002-1.424202-0.5150032-2.1814995-0.5150032
		H32.9063683v10.9688034H70.6875687z"/>
	<path style="fill:#E67A00;" d="M0,19.5000095v-8.5312996h3.1269701c1.1495497,0,2.2833197,0.2677002,3.3114998,0.7817993
		c1.0282001,0.5139999,2.1620007,0.7817001,3.3115005,0.7817001c1.1496,0,2.2832994-0.2677002,3.3114996-0.7817001
		c2.5734005-1.2867994,5.5356998-1.5620995,8.3020992-0.7715998l0,0c2.7799015,0.7941999,5.7092018,0.9127998,8.5441017,0.3458004
		l1.7798004-0.3559999l0.0000992,8.5310993L0,19.5000095z"/>
	<path style="fill:#F78E00;" d="M32.9063683,19.4997101h-32.90625v51.1876068h70.6875534V53.6247101H32.9063683V19.4997101z"/>
	<path style="fill:#E67A00;" d="M10.9688702,52.4060097v-14.625h13.4062004v-2.4375h-3.6562004V19.4997101h-2.4375v15.8437996
		h-18.28125v2.4375h8.53125v14.625h-8.53125v2.4375h18.28125v15.8438072h2.4375V54.8435097h29.2499981v15.8438072h2.4375V54.8435097
		h18.2813072v-2.4375H10.9688702z"/>
	<path style="fill:#8098AB;" d="M43.8749695,26.8125095l4.875,9.7500019l-10.000103,20.8557968
		c-0.2870979,0.6818008-0.7689972,1.2638016-1.3851967,1.6730003c-0.6163025,0.4092026-1.3397026,0.6273994-2.0795021,0.6273994
		c-0.7117004,0-1.4087982-0.2019997-2.0102005-0.5825996c-0.6013985-0.3806-1.0823975-0.924099-1.3870983-1.5672989
		l-9.9503994-21.0062981l4.875-9.7500019H43.8749695z"/>
	<path style="fill:#718799;" d="M32.9063683,19.4997101h4.875v14.6251984c0,0.6464996-0.2568016,1.2665024-0.7139015,1.7236023
		s-1.0770988,0.7138977-1.7235985,0.7138977s-1.2663994-0.2567978-1.7235985-0.7138977
		c-0.4570999-0.4570999-0.7139015-1.0771027-0.7139015-1.7236023V19.4997101z"/>
	<path style="fill:#D69651;" d="M31.6876698,4.8747597h7.3123989V19.499609h-7.3123989V4.8747597z"/>
	<path style="fill:#C78640;" d="M31.6876698,4.875V3.6562498c0-0.9696898,0.3851986-1.8996797,1.0707989-2.58535
		C33.4441681,0.3852198,34.3741684,0,35.3438683,0s1.8997002,0.3852198,2.5853996,1.0708997
		c0.6856995,0.6856704,1.0709,1.6156602,1.0709,2.58535V4.875H31.6876698z"/>
</g>
</svg>
